HIERARCHY
ROOT Hips
{
	OFFSET 0.00000 0.00000 0.00000
	CHANNELS 6 Xposition Yposition Zposition Zrotation Yrotation Xrotation 
	JOINT LHipJoint
	{
		OFFSET 0 0 0
		CHANNELS 3 Zrotation Yrotation Xrotation
		JOINT LeftUpLeg
		{
			OFFSET 1.52977 -1.71332 0.88991
			CHANNELS 3 Zrotation Yrotation Xrotation
			JOINT LeftLeg
			{
				OFFSET 2.23949 -6.15296 0.00000
				CHANNELS 3 Zrotation Yrotation Xrotation
				JOINT LeftFoot
				{
					OFFSET 2.68396 -7.37412 0.00000
					CHANNELS 3 Zrotation Yrotation Xrotation
					JOINT LeftToeBase
					{
						OFFSET 0.20538 -0.56428 2.52710
						CHANNELS 3 Zrotation Yrotation Xrotation
						End Site
						{
							OFFSET 0.00000 -0.00000 1.29919
						}
					}
				}
			}
		}
	}
	JOINT RHipJoint
	{
		OFFSET 0 0 0
		CHANNELS 3 Zrotation Yrotation Xrotation
		JOINT RightUpLeg
		{
			OFFSET -1.45689 -1.71333 0.88991
			CHANNELS 3 Zrotation Yrotation Xrotation
			JOINT RightLeg
			{
				OFFSET -2.36700 -6.50329 0.00000
				CHANNELS 3 Zrotation Yrotation Xrotation
				JOINT RightFoot
				{
					OFFSET -2.69814 -7.41308 0.00000
					CHANNELS 3 Zrotation Yrotation Xrotation
					JOINT RightToeBase
					{
						OFFSET -0.18734 -0.51471 2.37479
						CHANNELS 3 Zrotation Yrotation Xrotation
						End Site
						{
							OFFSET -0.00000 -0.00000 1.22113
						}
					}
				}
			}
		}
	}
	JOINT LowerBack
	{
		OFFSET 0 0 0
		CHANNELS 3 Zrotation Yrotation Xrotation
		JOINT Spine
		{
			OFFSET 0.04294 2.14638 -0.31163
			CHANNELS 3 Zrotation Yrotation Xrotation
			JOINT Spine1
			{
				OFFSET -0.00400 2.17216 0.01486
				CHANNELS 3 Zrotation Yrotation Xrotation
				JOINT Neck
				{
					OFFSET 0 0 0
					CHANNELS 3 Zrotation Yrotation Xrotation
					JOINT Neck1
					{
						OFFSET 0.03869 1.76598 0.14916
						CHANNELS 3 Zrotation Yrotation Xrotation
						JOINT Head
						{
							OFFSET -0.00760 1.75513 -0.18948
							CHANNELS 3 Zrotation Yrotation Xrotation
							End Site
							{
								OFFSET -0.00601 1.82444 -0.08310
							}
						}
					}
				}
				JOINT LeftShoulder
				{
					OFFSET 0 0 0
					CHANNELS 3 Zrotation Yrotation Xrotation
					JOINT LeftArm
					{
						OFFSET 3.73696 0.92058 0.01733
						CHANNELS 3 Zrotation Yrotation Xrotation
						JOINT LeftForeArm
						{
							OFFSET 5.22771 -0.00000 0.00000
							CHANNELS 3 Zrotation Yrotation Xrotation
							JOINT LeftHand
							{
								OFFSET 3.45251 -0.00000 0.00000
								CHANNELS 3 Zrotation Yrotation Xrotation
								JOINT LeftFingerBase
								{
									OFFSET 0 0 0
									CHANNELS 3 Zrotation Yrotation Xrotation
									JOINT LeftHandIndex1
									{
										OFFSET 0.55212 -0.00000 0.00000
										CHANNELS 3 Zrotation Yrotation Xrotation
										End Site
										{
											OFFSET 0.44513 -0.00000 0.00000
										}
									}
								}
								JOINT LThumb
								{
									OFFSET 0 0 0
									CHANNELS 3 Zrotation Yrotation Xrotation
									End Site
									{
										OFFSET 0.45193 -0.00000 0.45193
									}
								}
							}
						}
					}
				}
				JOINT RightShoulder
				{
					OFFSET 0 0 0
					CHANNELS 3 Zrotation Yrotation Xrotation
					JOINT RightArm
					{
						OFFSET -3.63819 0.83094 -0.13694
						CHANNELS 3 Zrotation Yrotation Xrotation
						JOINT RightForeArm
						{
							OFFSET -5.23980 -0.00000 -0.00000
							CHANNELS 3 Zrotation Yrotation Xrotation
							JOINT RightHand
							{
								OFFSET -3.48042 -0.00000 -0.00000
								CHANNELS 3 Zrotation Yrotation Xrotation
								JOINT RightFingerBase
								{
									OFFSET 0 0 0
									CHANNELS 3 Zrotation Yrotation Xrotation
									JOINT RightHandIndex1
									{
										OFFSET -0.61871 -0.00000 0.00000
										CHANNELS 3 Zrotation Yrotation Xrotation
										End Site
										{
											OFFSET -0.49882 -0.00000 0.00000
										}
									}
								}
								JOINT RThumb
								{
									OFFSET 0 0 0
									CHANNELS 3 Zrotation Yrotation Xrotation
									End Site
									{
										OFFSET -0.50644 -0.00000 0.50644
									}
								}
							}
						}
					}
				}
			}
		}
	}
}
MOTION
Frames: 9
Frame Time: .0083333
14.5308 16.4368 -5.2968 736.3990 87.2458 733.9480 0.0000 0.0000 0.0000 -22.6304 16.0763 17.3531 0.0000 0.0000 0.0000 0.5169 -2.0043 -13.0393 0.3236 -3.6561 -10.1112 0.0000 0.0000 0.0000 15.2379 18.8169 -29.8337 -2.8821 -10.5016 30.6169 -0.9548 -6.7958 -22.1173 -0.0170 0.8427 -2.3160 -2.0799 -1.1110 1.5348 -0.7834 -1.4346 2.8287 0.3570 -0.7345 2.0725 4.7679 1.2767 -9.9550 -1.9195 1.3082 12.6953 -1.2792 0.7525 5.5106 0.0000 0.0000 0.0000 -85.6383 -11.6334 31.6148 20.1230 -30.7902 -5.5942 -0.0000 0.0000 -15.4402 19.7132 11.8834 4.2198 -7.1250 0.0000 -0.0000 -6.7493 42.4814 0.4215 0.0000 0.0000 0.0000 90.3575 -9.0564 19.3621 -12.0809 19.9259 -2.1298 0.0000 0.0000 8.0308 -18.0366 -5.2331 1.7012 7.1250 -0.0000 -0.0000 7.2030 -35.4062 1.7088
14.6918 16.4308 -5.2869 737.9100 87.3114 735.5700 0.0000 0.0000 0.0000 -22.5022 16.3097 17.7969 0.0000 -0.0000 -0.0000 0.5226 -2.1384 -13.0878 0.3577 -3.8420 -10.6327 0.0000 0.0000 0.0000 14.9642 19.1560 -29.9145 -2.6161 -10.0459 29.1256 -0.9701 -6.5173 -22.0565 -0.0219 0.9553 -2.6257 -2.0515 -1.1221 1.4716 -0.7710 -1.4491 2.8073 0.3527 -0.7416 2.0859 4.7772 1.2802 -9.9324 -2.0009 1.3227 12.6201 -1.3052 0.7531 5.4843 0.0000 -0.0000 0.0000 -85.6583 -11.7626 31.7947 20.3253 -31.0323 -5.6981 -0.0000 0.0000 -15.5572 19.7899 11.8015 4.2089 -7.1250 0.0000 -0.0000 -6.6661 42.4035 0.4292 0.0000 -0.0000 0.0000 90.4603 -9.1499 18.8541 -11.9508 19.7309 -2.0857 0.0000 0.0000 8.3455 -18.0265 -5.1670 1.6787 7.1250 -0.0000 -0.0000 7.2036 -35.3368 1.7212
14.8542 16.4238 -5.2768 739.3270 87.3916 737.0850 0.0000 0.0000 0.0000 -22.3445 16.5330 18.2659 0.0000 0.0000 0.0000 0.5247 -2.2853 -13.0890 0.3964 -4.0425 -11.1962 0.0000 0.0000 0.0000 14.7338 19.4007 -30.0032 -2.3946 -9.6437 27.8306 -0.9910 -6.2334 -22.0465 -0.0280 1.0802 -2.9695 -2.0062 -1.1361 1.4204 -0.7535 -1.4677 2.7865 0.3444 -0.7505 2.0928 4.7877 1.2838 -9.9127 -2.0880 1.3377 12.5491 -1.3331 0.7538 5.4597 0.0000 -0.0000 0.0000 -85.7043 -11.8620 31.9439 20.4916 -31.2300 -5.7841 -0.0000 0.0000 -15.6556 19.8565 11.7194 4.1953 -7.1250 0.0000 -0.0000 -6.5923 42.3241 0.4373 0.0000 -0.0000 0.0000 90.5591 -9.2386 18.3357 -11.8170 19.5297 -2.0407 0.0000 0.0000 8.6905 -18.0245 -5.1000 1.6568 7.1250 -0.0000 -0.0000 7.1974 -35.2669 1.7321
15.0180 16.4156 -5.2662 740.7170 87.4866 738.5580 0.0000 0.0000 0.0000 -22.1594 16.7460 18.7608 0.0000 -0.0000 -0.0000 0.5227 -2.4308 -13.0381 0.4453 -4.2815 -11.8699 0.0000 0.0000 0.0000 14.5564 19.5330 -30.0969 -2.2164 -9.3029 26.7476 -1.0149 -5.9675 -22.0794 -0.0352 1.2116 -3.3311 -1.9468 -1.1530 1.3821 -0.7319 -1.4907 2.7680 0.3327 -0.7612 2.0946 4.8035 1.2841 -9.9210 -2.1846 1.3474 12.5038 -1.3652 0.7517 5.4479 -0.0000 -0.0000 0.0000 -85.7756 -11.9315 32.0616 20.6215 -31.3839 -5.8516 -0.0000 0.0000 -15.7310 19.9065 11.6388 4.1784 -7.1250 0.0000 -0.0000 -6.5334 42.2448 0.4462 -0.0000 -0.0000 0.0000 90.6511 -9.3171 17.8177 -11.6782 19.3203 -1.9946 0.0000 0.0000 9.0535 -18.0170 -5.0495 1.6398 7.1250 -0.0000 -0.0000 7.1977 -35.2139 1.7415
15.1835 16.4063 -5.2550 742.0490 87.5948 739.9590 0.0000 0.0000 0.0000 -21.9421 16.9510 19.2839 0.0000 -0.0000 -0.0000 0.5160 -2.5865 -12.9282 0.5005 -4.5356 -12.5885 0.0000 0.0000 0.0000 14.4437 19.5485 -30.1847 -2.0788 -9.0283 25.8839 -1.0398 -5.7386 -22.1473 -0.0431 1.3395 -3.6835 -1.8782 -1.1747 1.3545 -0.7028 -1.5203 2.7533 0.3236 -0.7752 2.0944 4.8243 1.2858 -9.9524 -2.2917 1.3590 12.4803 -1.4013 0.7500 5.4470 0.0000 0.0000 0.0000 -85.8770 -11.9725 32.1320 20.7120 -31.4907 -5.8988 -0.0000 0.0000 -15.7709 19.9406 11.5694 4.1615 -7.1250 0.0000 -0.0000 -6.4909 42.1752 0.4545 0.0000 0.0000 0.0000 90.7304 -9.3848 17.3123 -11.5380 19.1082 -1.9484 0.0000 0.0000 9.4217 -17.9953 -5.0238 1.6293 7.1250 -0.0000 -0.0000 7.2126 -35.1862 1.7500
15.3508 16.3959 -5.2427 743.3630 87.7130 741.3230 0.0000 0.0000 0.0000 -21.6945 17.1499 19.8332 0.0000 -0.0000 -0.0000 0.5045 -2.7408 -12.7571 0.5688 -4.8301 -13.4247 0.0000 0.0000 0.0000 14.3933 19.4687 -30.2497 -1.9788 -8.8218 25.2395 -1.0617 -5.5835 -22.2382 -0.0501 1.4446 -3.9729 -1.8060 -1.2004 1.3365 -0.6668 -1.5556 2.7426 0.3196 -0.7919 2.0932 4.8392 1.2898 -9.9924 -2.3949 1.3735 12.4645 -1.4349 0.7498 5.4500 0.0000 -0.0000 0.0000 -86.0027 -11.9768 32.1649 20.7687 -31.5573 -5.9284 -0.0000 0.0000 -15.7849 19.9653 11.5086 4.1456 -7.1250 0.0000 -0.0000 -6.4583 42.1139 0.4620 0.0000 -0.0000 0.0000 90.7956 -9.4358 16.8244 -11.3929 18.8880 -1.9012 0.0000 0.0000 9.7919 -17.9698 -5.0068 1.6214 7.1250 -0.0000 -0.0000 7.2316 -35.1673 1.7581
15.5198 16.3847 -5.2291 744.5590 87.8324 742.5610 0.0000 0.0000 0.0000 -21.4144 17.3492 20.4026 0.0000 0.0000 0.0000 0.4877 -2.9155 -12.5143 0.6400 -5.1183 -14.2463 0.0000 0.0000 0.0000 14.4002 19.3270 -30.2808 -1.9129 -8.6823 24.8064 -1.0763 -5.5303 -22.3310 -0.0543 1.5035 -4.1355 -1.7319 -1.2275 1.3200 -0.6246 -1.5928 2.7343 0.3209 -0.8097 2.0936 4.8443 1.2993 -10.0238 -2.4854 1.3959 12.4455 -1.4623 0.7540 5.4507 0.0000 -0.0000 0.0000 -86.1512 -11.9450 32.1584 20.7896 -31.5819 -5.9394 -0.0000 0.0000 -15.7700 19.9839 11.4602 4.1326 -7.1250 0.0000 -0.0000 -6.4335 42.0650 0.4680 0.0000 -0.0000 0.0000 90.8487 -9.4726 16.3578 -11.2454 18.6634 -1.8537 0.0000 0.0000 10.1658 -17.9379 -4.9891 1.6126 7.1250 -0.0000 -0.0000 7.2559 -35.1473 1.7676
15.6908 16.3730 -5.2138 745.6750 87.9515 743.7080 0.0000 0.0000 0.0000 -21.1025 17.5490 20.9928 0.0000 0.0000 0.0000 0.4655 -3.1133 -12.1973 0.7099 -5.3849 -15.0096 0.0000 0.0000 0.0000 14.4506 19.1586 -30.2587 -1.8777 -8.6065 24.5719 -1.0808 -5.5959 -22.4117 -0.0543 1.5031 -4.1342 -1.6625 -1.2554 1.3041 -0.5773 -1.6311 2.7258 0.3300 -0.8282 2.0938 4.8461 1.3125 -10.0377 -2.5673 1.4235 12.4217 -1.4861 0.7612 5.4471 0.0000 0.0000 0.0000 -86.3177 -11.8687 32.1205 20.7769 -31.5670 -5.9327 -0.0000 0.0000 -15.7398 20.0113 11.4309 4.1283 -7.1250 0.0000 -0.0000 -6.4041 42.0368 0.4703 0.0000 0.0000 0.0000 90.8908 -9.5010 15.9203 -11.0961 18.4354 -1.8062 0.0000 0.0000 10.5385 -17.9121 -4.9701 1.6040 7.1250 -0.0000 -0.0000 7.2749 -35.1264 1.7760
15.8637 16.3611 -5.1969 746.9260 88.0647 744.9860 0.0000 0.0000 0.0000 -20.7704 17.7480 21.5952 0.0000 0.0000 0.0000 0.4376 -3.3360 -11.7979 0.7719 -5.6101 -15.6571 0.0000 0.0000 0.0000 14.5205 18.9976 -30.1806 -1.8697 -8.5892 24.5184 -1.0722 -5.7900 -22.4615 -0.0505 1.4506 -3.9897 -1.6083 -1.2835 1.2832 -0.5291 -1.6698 2.7129 0.3486 -0.8472 2.0928 4.8478 1.3301 -10.0257 -2.6395 1.4568 12.3877 -1.5065 0.7722 5.4361 0.0000 0.0000 0.0000 -86.4954 -11.7453 32.0616 20.7303 -31.5122 -5.9084 -0.0000 0.0000 -15.7072 20.0513 11.4192 4.1331 -7.1250 0.0000 -0.0000 -6.3665 42.0285 0.4688 0.0000 0.0000 0.0000 90.9282 -9.5229 15.4974 -10.9437 18.2019 -1.7583 0.0000 0.0000 10.9298 -17.8861 -4.9459 1.5938 7.1250 -0.0000 -0.0000 7.2935 -35.1000 1.7854
